# xmcd CD database file
#
# Track frame offsets:
#	150
#	22521
#	37104
#	61864
#	80870
#	97940
#	117657
#	139603
#	158345
#	185892
#
# Disc length: 2921 seconds
#
# Revision: 2
# Processed by: cddbd v1.5.1PL0 Copyright (c) Steve Scherf et al.
# Submitted via: CDex 1.51
#
DISCID=7b0b670a
DTITLE=zephlabel - Zeph Compilation Vol.01 cherubically Disc 1
DYEAR=2005
DGENRE=Techno
TTITLE0=sweet raindrops - Ayana Haru
TTITLE1=O_L - Ueno Yuki
TTITLE2=sakura vision - ballistyx
TTITLE3=flyboy,fly high - off-beat
TTITLE4=2038 - Yamajet
TTITLE5=seasons passing away - asha
TTITLE6=traek - nixx
TTITLE7=knoav_ - miyauchi yuri
TTITLE8=numbmind - narve
TTITLE9=last note - equal and ensemble(lostnote)
EXTD=YEAR: 2005
EXTT0=
EXTT1=
EXTT2=
EXTT3=
EXTT4=
EXTT5=
EXTT6=
EXTT7=
EXTT8=
EXTT9=
PLAYORDER=
